name 900006 ik
datacolumns 165
datarows 4
range 1.1249966666666653 1.1499966666666652
cursor 1.0 1.0 0.0
keys m_key
wrap
enforce_loops no
enforce_constraints no
calc_derivatives 0.008333
event_color 1.000000 0.000000 1.000000
endheader

time	calcn_r_tx	calcn_r_ty	calcn_r_tz	calcn_r_r1	calcn_r_r2	calcn_r_r3	calcn_l_tx	calcn_l_ty	calcn_l_tz	calcn_l_r1	calcn_l_r2	calcn_l_r3	pelvis_tz	pelvis_tx	pelvis_ty	pelvis_tilt	pelvis_list	pelvis_rotation	hip_flexion_r	hip_adduction_r	hip_rotation_r	knee_angle_r	ankle_angle_r	subtalar_angle_r	mtp_angle_r	hip_flexion_l	hip_adduction_l	hip_rotation_l	knee_angle_l	ankle_angle_l	subtalar_angle_l	mtp_angle_l	lumbar_extension	lumbar_bending	lumbar_rotation	ground_force_px	ground_force_py	ground_force_pz	ground_force_vx	ground_force_vy	ground_force_vz	ground_force_px	ground_force_py	ground_force_pz	ground_force_vx	ground_force_vy	ground_force_vz	ground_torque_x	ground_torque_y	ground_torque_z	ground_torque_x	ground_torque_y	ground_torque_z	 midhip_px	 midhip_py	 midhip_pz	 hip_r_px	 hip_r_py	 hip_r_pz	 hip_l_px	 hip_l_py	 hip_l_pz	 knee_r_px	 knee_r_py	 knee_r_pz	 knee_l_px	 knee_l_py	 knee_l_pz	 ankle_r_px	 ankle_r_py	 ankle_r_pz	 ankle_l_px	 ankle_l_py	 ankle_l_pz	 midasis_px	 midasis_py	 midasis_pz	 asis_r_px	 asis_r_py	 asis_r_pz	 asis_l_px	 asis_l_py	 asis_l_pz	 psis_r_px	 psis_r_py	 psis_r_pz	 psis_l_px	 psis_l_py	 psis_l_pz	 epicondLat_r_px	 epicondLat_r_py	 epicondLat_r_pz	 epicondLat_l_px	 epicondLat_l_py	 epicondLat_l_pz	 epicondMed_r_px	 epicondMed_r_py	 epicondMed_r_pz	 epicondMed_l_px	 epicondMed_l_py	 epicondMed_l_pz	 malleolusLat_r_px	 malleolusLat_r_py	 malleolusLat_r_pz	 malleolusLat_l_px	 malleolusLat_l_py	 malleolusLat_l_pz	 malleolusMedv_r_px	 malleolusMedv_r_py	 malleolusMedv_r_pz	 malleolusMedv_l_px	 malleolusMedv_l_py	 malleolusMedv_l_pz	 sternalnotch_px	 sternalnotch_py	 sternalnotch_pz	 xyphoidprocess_px	 xyphoidprocess_py	 xyphoidprocess_pz	 neck_px	 neck_py	 neck_pz	 toe_r_px	 toe_r_py	 toe_r_pz	 toe_l_px	 toe_l_py	 toe_l_pz	 thighwand_r_px	 thighwand_r_py	 thighwand_r_pz	 thighwand_l_px	 thighwand_l_py	 thighwand_l_pz	 upperleg1_r_px	 upperleg1_r_py	 upperleg1_r_pz	 upperleg1_l_px	 upperleg1_l_py	 upperleg1_l_pz	 upperleg2_r_px	 upperleg2_r_py	 upperleg2_r_pz	 upperleg2_l_px	 upperleg2_l_py	 upperleg2_l_pz	 shankwand_r_px	 shankwand_r_py	 shankwand_r_pz	 shankwand_l_px	 shankwand_l_py	 shankwand_l_pz	 lowerleg1_r_px	 lowerleg1_r_py	 lowerleg1_r_pz	 lowerleg1_l_px	 lowerleg1_l_py	 lowerleg1_l_pz	 subclavicle_r_px	 subclavicle_r_py	 subclavicle_r_pz	 subclavicle_l_px	 subclavicle_l_py	 subclavicle_l_pz	
      1.1249966666666653	     -1.6212148848085746	      0.0331518073808957	      0.3366101936298356	      3.4776862861103206	     -3.4831879253505069	     -0.9848951349676491	     -1.6150740094446403	      0.0857177256861090	      0.2098273964188490	      0.4440880815026223	     -2.4161628490386526	    -12.7525558364166920	      0.3102708501991414	     -1.4721035890990246	      0.8361437938478331	      2.4179052549251638	      2.6795387553573677	     -3.1584076207198080	      0.0221604928134321	      1.4798046426056857	      0.6036109023792080	    -10.0074909212365140	      6.6846740431642804	      0.0000000000000000	      0.0000000000000000	     15.1887572820978760	      1.9231422906749860	     -3.3329381905407174	    -40.0129209427442450	      9.9910159808438781	     -0.0000000000000000	      0.0000000000000000	     -3.6642953935157561	      1.9759288807806230	     -1.5276750992993982	     -1.5253827422601853	      0.0000000000000000	      0.3348758464555856	     -7.9574219540372146	    404.1468476906604200	     -9.5481104513243391	     -1.8963566909754770	      0.0000000000000000	      0.2222501718133631	      0.0000000000000388	     -0.0000000000001526	     -0.0000000000000075	      0.0000000000000000	      1.0624706991777748	      0.0000000000000000	      0.0000000000000000	     -0.0000000000000032	      0.0000000000000000	     -1.5078264936572865	      0.7752099374897317	      0.3004973544113488	     -1.5189855573515199	      0.7690644466492466	      0.3564942095937218	     -1.4966676704960595	      0.7813550837578122	      0.2445001002193807	     -1.5618688157963547	      0.4218106293693862	      0.3563082468130946	     -1.4363993036341443	      0.4339020558598635	      0.2250246638423648	     -1.5744987162305124	      0.0646338249408983	      0.3290613381418152	     -1.5628659809286385	      0.1040022810873203	      0.2281907036041962	     -1.4736824426571380	      0.8467833722249186	      0.3144439658820626	     -1.4799792927364053	      0.8409362766273202	      0.4252734257537472	     -1.4673854106923039	      0.8526305634954005	      0.2036144474365928	     -1.6512970031985443	      0.8753356019284497	      0.3341540543462012	     -1.6500761320957993	      0.8752300146729952	      0.2803824073563062	     -1.5341502987288604	      0.4172593390017786	      0.4160451389983333	     -1.4302097190163181	      0.4307647258327800	      0.1659834609949091	     -1.5453148729223114	      0.4216642369308999	      0.2972554765250151	     -1.4224223265568476	      0.4263380110615849	      0.2897140751428049	     -1.5803932890872088	      0.0621635722860975	      0.3660136135174944	     -1.5782247145878170	      0.1096209967970571	      0.1955566172078678	     -1.5747728248553927	      0.0627962591383581	      0.2956216488636304	     -1.5576587606329795	      0.1036825308494680	      0.2613615815111371	     -1.4861391735083318	      1.2009721884056981	      0.3131252622508290	     -1.4758289804023759	      1.0998259628031826	      0.3028750815478513	     -1.5950586097428832	      1.2696859062845849	      0.3146456623314250	     -1.4916795369452136	      0.0463945009507719	      0.3473114888124832	     -1.4861814497722694	      0.0674979787709332	      0.2015431894753661	     -1.4119521631749647	      0.5591480092525973	      0.3928110828947884	     -1.3555879488827829	      0.6043599576029824	      0.1645515357833149	     -1.4670101773265753	      0.5956712847285240	      0.4289276989861813	     -1.3927105429411779	      0.6378597751445837	      0.2286851998287408	     -1.4777163828830335	      0.5401660682424296	      0.4225615927428136	     -1.3848585708847994	      0.5806449987996123	      0.2355771549989708	     -1.4428831339753565	      0.1720299379177177	      0.3646553635564668	     -1.5628899650438406	      0.2171810907286300	      0.1095352382060289	     -1.5230992674411539	      0.1607916224972812	      0.3478889644942082	     -1.5454942215425562	      0.2012692769660395	      0.1855926114264692	     -1.4880032166437946	      1.1965189311867166	      0.3693415766312599	     -1.4791453530209997	      1.2054950674515637	      0.2635442681144609	
      1.1333299999999986	     -1.6209223221196629	      0.0325514389723302	      0.3360814581362590	      3.4103100229854473	     -4.0802445686007749	     -0.7162539113239956	     -1.5961997412142896	      0.0814961343427883	      0.2100678088023139	      0.5108056764670838	     -2.3498140528524862	    -11.0461703546224810	      0.3108656580658178	     -1.4675948912234114	      0.8357659461596532	      2.3953042750376619	      2.7723332807569641	     -3.4335965222889020	     -0.4905259422186263	      1.3402537998331205	      0.3638916888566480	     -9.5828021349031349	      7.0823665628616954	      0.0000000000000000	      0.0000000000000000	     15.8302600742781760	      1.8767733687378210	     -3.6896476724894405	    -38.9109327449797390	      9.9881511348029512	     -0.0000000000000000	      0.0000000000000000	     -3.7655831318859323	      1.4963736299898074	     -1.4879874260333599	     -1.5236290422521530	      0.0000000000000000	      0.3352351377869901	     -6.7255005563568444	    405.2396374948603500	     -9.5766906856090603	     -1.8957367065123014	      0.0000000000000000	      0.2221893170359734	     -0.0000000000000167	      0.0000000000000656	      0.0000000000000032	      0.0000000000000000	      1.1127285582638393	      0.0000000000000000	      0.0000000000000000	      0.0000000000000014	      0.0000000000000000	     -1.5037687333746650	      0.7750467658177820	      0.3009546004278251	     -1.5149514330730023	      0.7688221250882139	      0.3569380877347297	     -1.4925862585694238	      0.7812710390153806	      0.2449708469394406	     -1.5600915738414753	      0.4215122568019025	      0.3564243357147864	     -1.4271239432594602	      0.4342271163333103	      0.2253624775286887	     -1.5743986308990092	      0.0646308975198216	      0.3289556937761358	     -1.5453265548020201	      0.1010778127247864	      0.2286766243590304	     -1.4695402849276618	      0.8465824382939445	      0.3150214188978909	     -1.4758962788930803	      0.8405629918739717	      0.4258469697258611	     -1.4631841264118977	      0.8526020324506379	      0.2041958543519607	     -1.6471917556145890	      0.8752896709344186	      0.3344960623735869	     -1.6459378984354356	      0.8751992102928894	      0.2805424091831308	     -1.5334313239308615	      0.4171721098125502	      0.4161752874134456	     -1.4226095492024593	      0.4315102379542110	      0.1663277898548533	     -1.5433276565487681	      0.4212287705252620	      0.2975219065495582	     -1.4131087056116101	      0.4265277516846531	      0.2891813404894091	     -1.5804335490532948	      0.0621669138169477	      0.3658857618389253	     -1.5608588044356164	      0.1062275934276242	      0.1960488335509269	     -1.5745204998489746	      0.0629092723574496	      0.2954943862942826	     -1.5401518745718619	      0.1008285850185523	      0.2618593884448829	     -1.4815310590393806	      1.2007405276154310	      0.3134543133657209	     -1.4714322055502298	      1.0995459086635833	      0.3034752668050222	     -1.5903396390026114	      1.2696715424005787	      0.3150471352859892	     -1.4915862086611182	      0.0464558851385012	      0.3472538359935948	     -1.4676547672008466	      0.0668641782636744	      0.2020387176982472	     -1.4099682261606663	      0.5580089406287155	      0.3933532048132793	     -1.3495977354235376	      0.6056564575944872	      0.1645113783363928	     -1.4646587167083904	      0.5949902469837659	      0.4292051295393944	     -1.3873603503601892	      0.6387779079097664	      0.2286667699198300	     -1.4755381802136391	      0.5396508545680648	      0.4228828759141273	     -1.3784307280928061	      0.5816681924157818	      0.2354133093758185	     -1.4428163508593677	      0.1717520178120795	      0.3650179493513260	     -1.5488109501651570	      0.2140555603495421	      0.1100210746613149	     -1.5228197609631173	      0.1609258660709495	      0.3479334971082626	     -1.5309206386566350	      0.1987113405823925	      0.1861409365536929	     -1.4834051205331080	      1.1964420828361133	      0.3696813226272094	     -1.4745272290552096	      1.2051155042907371	      0.2638625174897119	
      1.1416633333333319	     -1.6205533215615684	      0.0324542714908291	      0.3356862222614039	      3.4233780554923698	     -4.2639658855552138	     -0.7179370467010762	     -1.5781610389510365	      0.0776685358101805	      0.2111312010508394	      0.5249883588318101	     -2.1157739604203778	     -9.6431176610124023	      0.3113465076405813	     -1.4629270606092506	      0.8354324240170939	      2.3404512367870436	      2.7814427568896756	     -3.3935062524083177	     -0.9536026912124640	      1.3653888447988605	      0.1841681050645076	     -9.2509956693660893	      7.2737977667209925	      0.0000000000000000	      0.0000000000000000	     16.4231963702557060	      1.8266857376055028	     -3.8321332354830160	    -37.7554679642116040	      9.6890997655967190	     -0.0000000000000000	      0.0000000000000000	     -3.8809252546140063	      1.3354530506663067	     -1.4769963533586641	     -1.5216715945451422	      0.0000000000000000	      0.3356250838222753	     -5.6746160292771615	    406.9301829141226700	     -9.6031509720313171	     -1.8950703439271368	      0.0000000000000000	      0.2221644923553753	      0.0000000000000072	     -0.0000000000000282	     -0.0000000000000014	      0.0000000000000000	      1.1679520330806390	      0.0000000000000000	      0.0000000000000000	     -0.0000000000000006	      0.0000000000000000	     -1.4996916878119027	      0.7748085086817983	      0.3014211583693801	     -1.5108968655391848	      0.7685292297929465	      0.3573940769016476	     -1.4884866899504825	      0.7810874346570997	      0.2454480726875526	     -1.5583865698076005	      0.4214043939408027	      0.3565268965033552	     -1.4180757952995247	      0.4347005779258851	      0.2257310552856287	     -1.5742638969021876	      0.0646283011508783	      0.3288537757801248	     -1.5277901914117415	      0.0983192547055394	      0.2290669691127577	     -1.4653860658150408	      0.8463208774881098	      0.3155807728278605	     -1.4718037712789291	      0.8401752831724998	      0.4264239402351813	     -1.4589681948898630	      0.8524666236795245	      0.2047376089956716	     -1.6430732975689073	      0.8751738498447483	      0.3347818175914468	     -1.6417937344297107	      0.8750966959349520	      0.2806831891055532	     -1.5325947747211530	      0.4170966089123628	      0.4162957820227534	     -1.4151938167312705	      0.4321467435406958	      0.1666897247518328	     -1.5413141669188772	      0.4209414140287051	      0.2978060481871217	     -1.4042147477977418	      0.4265796154592500	      0.2883722083371882	     -1.5804580638929895	      0.0621776489346480	      0.3657580963284232	     -1.5434322989001110	      0.1029816376068807	      0.1964196667005922	     -1.5742668382254674	      0.0630501144998546	      0.2953704890592357	     -1.5226751907959835	      0.0981068942154002	      0.2622604011015600	     -1.4769296468018134	      1.2004209362452911	      0.3137548706277507	     -1.4670869501798740	      1.0991791522292209	      0.3039954298937809	     -1.5856097662601212	      1.2696310939079767	      0.3154082721516857	     -1.4914389178585612	      0.0465355785186275	      0.3471631618999925	     -1.4492056856201998	      0.0662316524054028	      0.2026283217716998	     -1.4079181977142556	      0.5568691538328279	      0.3940307157350660	     -1.3436140238059706	      0.6068085838595245	      0.1644954596073627	     -1.4622409924172624	      0.5944701482373512	      0.4295645157482087	     -1.3820770331548722	      0.6396264970563022	      0.2287957100824566	     -1.4733763198442784	      0.5391711701312254	      0.4232690880993105	     -1.3721528451166316	      0.5825389999976961	      0.2352998986632712	     -1.4426905208504031	      0.1714166905492786	      0.3654352565865290	     -1.5345791226413510	      0.2109214402295911	      0.1103895684939920	     -1.5225114244638083	      0.1610298094493915	      0.3480295899783751	     -1.5162885922012355	      0.1961805773119933	      0.1866035370420330	     -1.4788236007970419	      1.1962469618381890	      0.3700163818683938	     -1.4699065949164725	      1.2046726480757668	      0.2641289313873034	
      1.1499966666666652	     -1.6202404218003872	      0.0324688535636570	      0.3351732323068727	      3.4152370570120332	     -4.5689347926274717	     -0.7821367384374346	     -1.5602416205706404	      0.0741678001451646	      0.2114475366892556	      0.5652477688717377	     -2.1533449363414743	     -8.1159412533506075	      0.3117985480668039	     -1.4584504752239933	      0.8351901428027158	      2.2872800044348343	      2.8134015657040714	     -3.5295795264092007	     -1.3651170366968395	      1.3349963895610952	      0.0453810921711442	     -8.9599165529009301	      7.3890685041868798	      0.0000000000000000	      0.0000000000000000	     16.9733455198686340	      1.8105456505496675	     -3.9103112542972069	    -36.5682602766885130	      9.5347660168651291	     -0.0000000000000000	      0.0000000000000000	     -3.9500075286584808	      1.2681173729049922	     -1.4784013327710805	     -1.5195567749104024	      0.0000000000000000	      0.3360124479008496	     -4.8215754097721018	    409.3235346038854300	     -9.6141377112523472	     -1.8943617411404174	      0.0000000000000000	      0.2221835710880750	     -0.0000000000000031	      0.0000000000000121	      0.0000000000000006	      0.0000000000000000	      1.2284435637606632	      0.0000000000000000	      0.0000000000000000	      0.0000000000000003	      0.0000000000000000	     -1.4955775366901127	      0.7745099036724217	      0.3018917788152573	     -1.5068110744110612	      0.7681993787877849	      0.3578554824209402	     -1.4843441184154089	      0.7808201210886785	      0.2459279566201538	     -1.5567359172389981	      0.4215139386085310	      0.3566221533798401	     -1.4097081963811535	      0.4353013210682549	      0.2261332622865880	     -1.5740900691849971	      0.0646268683522727	      0.3287578021779709	     -1.5102789185659771	      0.0957421263246294	      0.2293581395528346	     -1.4612080775815131	      0.8460102483266261	      0.3161218170556616	     -1.4677007253165590	      0.8397835423880165	      0.4269908493269561	     -1.4547152643991850	      0.8522370694421654	      0.2052527597727754	     -1.6389358852020646	      0.8749997232020813	      0.3349928900185487	     -1.6376272449905391	      0.8749288983255714	      0.2808029274616835	     -1.5316219459368601	      0.4170291456953991	      0.4164099515693145	     -1.4079711043021195	      0.4326762882969134	      0.1670773976266858	     -1.5391972055089311	      0.4208179744588947	      0.2980276811540809	     -1.3960319107180899	      0.4266105712862208	      0.2875178038081750	     -1.5804654538641580	      0.0621974565995053	      0.3656321469142383	     -1.5259864359004374	      0.0999128590922065	      0.1966762803413037	     -1.5740226812560982	      0.0631547228645751	      0.2952619827108552	     -1.5052465854495325	      0.0955435641638475	      0.2625639876927624	     -1.4723272695568324	      1.2000307713743996	      0.3140280917060797	     -1.4627581372396727	      1.0987484679003545	      0.3044101098538756	     -1.5808763313764145	      1.2695567806850392	      0.3156959841894712	     -1.4912637829929025	      0.0466103856581660	      0.3470661009420784	     -1.4308531019587247	      0.0656161179633532	      0.2032750568083299	     -1.4057605209875716	      0.5557473279503301	      0.3948500981337759	     -1.3377402587659726	      0.6078041860159780	      0.1645020976497351	     -1.4597470092662403	      0.5941401220741439	      0.4299755515509260	     -1.3768493429567361	      0.6403990170040333	      0.2290539604571614	     -1.4712346593371213	      0.5387216010931645	      0.4236792181961377	     -1.3661060757150134	      0.5832822744589948	      0.2352732225752187	     -1.4425024922609682	      0.1710045693829498	      0.3659182600388235	     -1.5202746675125711	      0.2078386715421593	      0.1106676685390304	     -1.5222055867259552	      0.1609767791024021	      0.3481994514970419	     -1.5016569327579652	      0.1937201462872039	      0.1869824532445001	     -1.4742627859071991	      1.1959348784528512	      0.3703411709209919	     -1.4652655654173488	      1.2041992974255493	      0.2643526413909285	
